<?xml version="1.0" encoding="UTF-8"?>
<svg width="373" height="114" viewBox="0 0 373 114" fill="none" xmlns="http://www.w3.org/2000/svg">
    <g>
        <path d="M207.708 82.9825H211.335V94.8258C212.428 92.4508 214.36 90.44 217.576 90.44C223.056 90.44 225.115 94.0183 225.115 98.2616V111.752H221.488V98.61C221.488 94.9366 219.92 93.4958 217.1 93.4958C214.044 93.4958 211.335 96.0767 211.335 101.507V111.736H207.708V82.9667V82.9825ZM202.957 108.775C201.341 108.775 200.296 107.762 200.296 105.909V93.9075H204.287V90.9308H200.296V84.4392L196.748 86.0541V90.9308H193.643V93.9075H196.748V106.162C196.748 109.392 198.569 111.767 202.592 111.767H204.414V108.791H202.957V108.775ZM190.745 82.9825H187.118V111.752H190.745V82.9825V82.9825ZM173.655 90.3925C168.207 90.3925 165.672 94.1767 165.229 97.2008H168.856C169.347 94.9367 171.232 93.4483 173.766 93.4483C176.744 93.4483 178.407 94.6992 178.407 96.425C178.407 98.1508 177.52 98.9266 174.78 99.4016C171.644 99.9716 164.215 100.162 164.215 106.052C164.215 109.028 166.512 112.211 171.517 112.211C176.158 112.211 177.884 109.519 178.375 107.904H178.407V108.712C178.407 109.883 178.407 110.722 178.486 111.736H182.351C182.192 110.722 182.034 109.076 182.034 107.508V98.5625C182.034 95.3325 181.305 90.3767 173.655 90.3767V90.3925ZM172.166 109.282C169.632 109.282 167.811 108.031 167.811 106.052C167.811 103.962 169.616 103.075 172.641 102.552C177.155 101.745 178.042 100.542 178.438 99.1641L178.486 102.062C178.486 107.223 175.35 109.266 172.166 109.266V109.282ZM151.608 112.227C156.248 112.227 159.749 109.978 160.921 105.545H157.373C156.644 108.126 154.316 109.218 151.529 109.218C147.822 109.218 145.161 106.685 144.876 102.331H161.238V101.682C161.158 96.33 158.862 90.44 151.529 90.44C145.637 90.44 141.376 94.9525 141.376 101.238C141.376 107.524 145.446 112.242 151.608 112.242V112.227ZM144.924 99.4175C145.415 95.8392 147.791 93.4166 151.529 93.4166C155.266 93.4166 157.246 95.7917 157.579 99.4175H144.924ZM133.441 82.9825V95.7125H119.582V82.9825H115.749V111.752H119.582V98.9425H133.441V111.752H137.274V82.9825H133.441V82.9825ZM354.2 51.9333H359.284V55.5275C360.456 53.105 362.309 51.3792 365.524 51.3792C370.925 51.3792 373.016 54.9258 373.016 60.04V72.77H367.853V61.2908C367.853 58.2666 367.045 55.8916 364.067 55.8916C361.28 55.8916 359.395 58.3458 359.395 63.4283V72.77H354.2V51.9333V51.9333ZM343.92 72.77H349.116V51.9333H343.92V72.77ZM344 48.8458H349.353V44.0166H344V48.8458ZM330.331 51.3C324.851 51.3 321.984 54.8783 321.382 58.3142H326.26C326.783 56.3825 328.319 55.1791 330.363 55.1791C332.738 55.1791 334.196 56.145 334.196 57.7917C334.196 59.565 332.913 59.9608 330.204 60.3725C327.306 60.8158 320.448 61.3858 320.448 67.1017C320.448 70.6008 323.188 73.34 327.749 73.34C331.693 73.34 333.435 71.25 334.275 69.5875H334.322V70.6325C334.322 71.3133 334.37 72.0891 334.481 72.77H339.676C339.391 71.44 339.28 69.3025 339.28 67.6875V60.1508C339.28 55.0367 336.856 51.2841 330.331 51.2841V51.3ZM329.159 69.5083C326.815 69.5083 325.611 68.3367 325.611 66.8483C325.611 65.2808 326.862 64.4258 329.65 63.8717C332.707 63.27 333.8 62.3358 334.291 61.3383V63.1117C334.291 67.9408 331.836 69.5241 329.175 69.5241L329.159 69.5083ZM316.504 68.7483C314.286 68.7483 313.764 67.3708 313.764 64.9641V55.8916H317.961V51.9492H313.764V45.0142L308.727 47.2308V51.9492H305.385V55.8916H308.727V65.6766C308.727 69.8725 310.184 72.9283 315.332 72.8491H317.834V68.7483H316.504V68.7483ZM284.019 72.77H289.214V63.4283C289.214 58.3458 291.114 55.8916 293.886 55.8916C296.864 55.8916 297.672 58.2666 297.672 61.2908V72.77H302.835V60.04C302.835 54.9258 300.744 51.3792 295.343 51.3792C292.112 51.3792 290.259 53.105 289.103 55.5275V51.9333H284.019V72.77V72.77ZM260.324 64.6791C260.324 69.7933 262.462 73.34 267.816 73.34C271.047 73.34 272.932 71.6142 274.056 69.1917V72.77H279.14V51.9333H273.945V61.275C273.945 66.3575 272.092 68.8116 269.273 68.8116C266.454 68.8116 265.488 66.4366 265.488 63.4125V51.9333H260.324V64.6633V64.6791ZM235.093 62.3358C235.093 69.065 239.924 73.3716 246.022 73.3716C252.12 73.3716 256.903 69.065 256.903 62.3358C256.903 55.6066 252.104 51.3792 246.022 51.3792C239.94 51.3792 235.093 55.6541 235.093 62.3358ZM246.022 69.2708C242.474 69.2708 240.177 66.12 240.177 62.3358C240.177 58.5516 242.474 55.4483 246.022 55.4483C249.57 55.4483 251.866 58.5833 251.866 62.3358C251.866 66.0883 249.57 69.2708 246.022 69.2708ZM201.61 72.77H206.805V63.4283C206.805 59.3592 207.613 55.8916 210.828 55.8916C213.695 55.8916 214.218 58.2666 214.218 61.2908V72.77H219.207V62.8108C219.207 58.4566 220.775 55.8758 223.198 55.8758C225.78 55.8758 226.588 58.2508 226.588 61.275V72.7542H231.704V60.0241C231.704 54.91 229.122 51.3633 223.879 51.3633C220.854 51.3633 219.239 52.7725 218.082 55.2742C217.037 52.5825 215.105 51.3633 212.286 51.3633C209.26 51.3633 207.328 53.3741 206.679 55.3533V51.9333H201.594V72.77H201.61ZM192.456 51.9333H187.371V72.77H192.566V63.3808C192.566 58.2983 194.42 57.3008 196.273 56.8575C197.001 56.5725 198.49 56.5725 198.775 56.5725V51.6958C195.877 51.7433 193.612 52.82 192.456 55.6066V51.9333V51.9333ZM173.386 73.4033C178.423 73.4033 182.05 70.7908 183.301 66.6425H178.137C177.377 68.4633 175.524 69.2233 173.338 69.2233C170.313 69.2233 168.064 67.1333 167.652 63.7766H183.618V62.7633C183.57 56.6041 180.387 51.3158 173.418 51.3158C167.209 51.3158 162.695 55.9075 162.695 62.2725C162.695 68.6375 167.082 73.3875 173.37 73.3875L173.386 73.4033ZM167.7 60.3092C168.191 57.285 170.234 55.2742 173.338 55.2742C176.68 55.2742 178.296 57.6175 178.613 60.3092H167.684H167.7ZM158.989 68.7325C156.771 68.7325 156.248 67.355 156.248 64.9483V55.8758H160.446V51.9333H156.248V44.9983L151.212 47.215V51.9333H147.87V55.8758H151.212V65.6608C151.212 69.8567 152.669 72.9125 157.816 72.8333H160.319V68.7325H158.989V68.7325ZM126.503 72.7542H131.699V63.4125C131.699 58.33 133.599 55.8758 136.371 55.8758C139.349 55.8758 140.156 58.2508 140.156 61.275V72.7542H145.32V60.0241C145.32 54.91 143.229 51.3633 137.828 51.3633C134.597 51.3633 132.744 53.0892 131.588 55.5117V51.9175H126.503V72.7542V72.7542ZM121.15 43.985H115.749V72.7542H121.15V44.0008V43.985Z" fill="#0C0050"></path>
        <path d="M39.3749 64.7742L21.6673 91.4217V61.3542C21.6673 56.0184 17.3434 51.6801 11.9899 51.6801C6.63645 51.6801 2.3125 56.0026 2.3125 61.3542V96.1084C2.3125 105.988 10.3269 114 20.2102 114C26.5298 114 32.0891 110.723 35.2727 105.783L39.3591 99.6234V64.7742H39.3749Z" fill="url(#paint0_linear_52_1292)"></path>
        <path d="M39.3747 64.7743L17.4699 97.7393C16.9313 98.5151 16.0285 99.0376 14.999 99.0376C13.336 99.0376 12.0055 97.6918 12.0055 96.0451V51.6959C6.66791 51.6959 2.32812 56.0184 2.32812 61.3701V96.1243C2.32812 103.091 7.98252 108.743 14.9515 108.743C19.2596 108.743 23.0609 106.59 25.3258 103.313L39.3747 82.1751V64.7901V64.7743Z" fill="url(#paint1_linear_52_1292)"></path>
        <path d="M39.3748 64.7742L17.47 97.7392C16.9315 98.515 16.0287 99.0375 14.9992 99.0375L14.9517 108.727C19.2598 108.727 23.061 106.574 25.326 103.297L39.3748 82.1592V64.7742Z" fill="url(#paint2_linear_52_1292)"></path>
        <path d="M13.9061 45.0743C20.4424 44.0137 24.881 37.8569 23.82 31.3229C22.759 24.7888 16.6002 20.3517 10.064 21.4123C3.52769 22.473 -0.910898 28.6297 0.150087 35.1637C1.21107 41.6978 7.36986 46.1349 13.9061 45.0743Z" fill="url(#paint3_linear_52_1292)"></path>
        <path d="M39.375 22.3883C39.7551 9.95917 49.9552 0 62.4836 0C75.0119 0 85.608 10.355 85.608 23.1167C85.608 28.1833 83.9766 32.87 81.2049 36.6858L71.0364 51.9967C69.6902 51.7908 68.3122 51.6958 66.9184 51.6958C51.7133 51.6958 39.375 64.0142 39.375 79.23V22.3883ZM66.269 23.18C66.269 21.09 64.5743 19.3958 62.4836 19.3958C60.3929 19.3958 58.6981 21.09 58.6981 23.18V35.6883L65.7305 25.1117C66.0631 24.5417 66.269 23.8767 66.269 23.18V23.18Z" fill="url(#paint4_linear_52_1292)"></path>
        <path d="M58.8248 52.8834L58.6981 52.915V35.6725L65.7305 25.0959C66.0631 24.5259 66.269 23.8609 66.269 23.1642C66.269 18.4142 62.4044 14.5509 57.6528 14.5509C52.9012 14.5509 49.0366 18.4142 49.0366 23.1642V58.2667C43.1288 63.3175 39.375 70.8225 39.375 79.1984V22.7525C39.375 12.8409 47.4052 4.81335 57.3202 4.81335C67.2352 4.81335 75.2654 12.8409 75.2654 22.7525C75.2654 26.4417 74.1567 29.8617 72.256 32.7117L72.3194 32.6325L58.8407 52.8992L58.8248 52.8834Z" fill="url(#paint5_linear_52_1292)"></path>
        <path d="M58.6979 52.9308C55.1025 54.055 51.8239 55.8917 49.0205 58.2825V23.18C49.0205 18.43 52.8851 14.5667 57.6367 14.5667C62.3883 14.5667 66.2529 18.43 66.2529 23.18C66.2529 21.09 64.5582 19.3958 62.4675 19.3958C60.3768 19.3958 58.6821 21.09 58.6821 23.18V52.9308H58.6979Z" fill="url(#paint6_linear_52_1292)"></path>
        <path d="M57.3041 14.5667C52.695 14.7409 49.0205 18.525 49.0205 23.18V58.2825C53.8354 54.1659 60.0758 51.6959 66.9023 51.6959C82.1074 51.6959 94.4457 64.0142 94.4457 79.23V104.342C94.4457 109.678 90.1217 114.016 84.7683 114.016C79.4306 114.016 75.0909 109.693 75.0909 104.342V79.23C75.0909 74.7017 71.4163 71.0442 66.9023 71.0442C62.3883 71.0442 58.7137 74.7175 58.7137 79.23V104.342C58.7137 109.678 54.3898 114.016 49.0363 114.016C43.6987 114.016 39.3589 109.693 39.3589 104.342V22.7525C39.3589 12.8409 47.3891 4.81335 57.3041 4.81335V14.5667V14.5667Z" fill="url(#paint7_linear_52_1292)"></path>
        <path d="M84.7683 114V79.2142C84.7683 72.0259 78.9397 66.1834 71.7331 66.1834C64.5265 66.1834 58.6979 72.01 58.6979 79.2142V104.326C58.6979 109.662 54.374 114 49.0205 114V79.2142C49.0205 66.6742 59.1889 56.525 71.7173 56.525C84.2456 56.525 94.4141 66.69 94.4141 79.2142V104.326C94.4141 109.662 90.0901 114 84.7366 114H84.7683Z" fill="url(#paint8_linear_52_1292)"></path>
        <path d="M84.7682 114V79.2142C84.7682 72.0258 78.9395 66.1833 71.733 66.1833C64.5264 66.1833 58.6978 72.01 58.6978 79.2142C58.6978 74.6858 62.3723 71.0284 66.8863 71.0284C71.4003 71.0284 75.0749 74.7017 75.0749 79.2142V104.326C75.0749 109.662 79.3989 114 84.7523 114H84.7682Z" fill="url(#paint9_linear_52_1292)"></path>
        <path d="M94.4458 79.2141C94.4458 66.6741 84.2774 56.525 71.749 56.525C59.2207 56.525 49.0522 66.69 49.0522 79.2141V58.2825C53.8514 54.1658 60.0918 51.6958 66.9182 51.6958C82.1233 51.6958 94.4616 64.0141 94.4616 79.23L94.4458 79.2141Z" fill="url(#paint10_linear_52_1292)"></path>
    </g>
    <defs>
        <linearGradient id="paint0_linear_52_1292" x1="20.8437" y1="100.605" x2="20.8437" y2="52.1867" gradientUnits="userSpaceOnUse">
            <stop offset="0.13" stop-color="#FA0000"></stop>
            <stop offset="0.49" stop-color="#FE4D46"></stop>
            <stop offset="0.56" stop-color="#FF5D55"></stop>
            <stop offset="0.64" stop-color="#FF645C"></stop>
            <stop offset="0.75" stop-color="#FF7871"></stop>
            <stop offset="0.85" stop-color="#FF8E88"></stop>
        </linearGradient>
        <linearGradient id="paint1_linear_52_1292" x1="20.4317" y1="51.5693" x2="21.2389" y2="108.633" gradientUnits="userSpaceOnUse">
            <stop offset="0.14" stop-color="#FF8E88"></stop>
            <stop offset="0.21" stop-color="#FF857E"></stop>
            <stop offset="0.43" stop-color="#FF6F67"></stop>
            <stop offset="0.64" stop-color="#FF6159"></stop>
            <stop offset="0.82" stop-color="#FF5D55"></stop>
        </linearGradient>
        <linearGradient id="paint2_linear_52_1292" x1="19.8458" y1="103.297" x2="34.5842" y2="77.7532" gradientUnits="userSpaceOnUse">
            <stop offset="0.12" stop-color="#FF5D55"></stop>
            <stop offset="0.69" stop-color="#FF9E9A"></stop>
            <stop offset="1" stop-color="#FFBEBB"></stop>
        </linearGradient>
        <linearGradient id="paint3_linear_52_1292" x1="11.9815" y1="45.2323" x2="11.9815" y2="21.2606" gradientUnits="userSpaceOnUse">
            <stop offset="0" stop-color="#FA0000"></stop>
            <stop offset="0.16" stop-color="#FB2827"></stop>
            <stop offset="0.33" stop-color="#FC4D49"></stop>
            <stop offset="0.5" stop-color="#FD6965"></stop>
            <stop offset="0.67" stop-color="#FE7D78"></stop>
            <stop offset="0.83" stop-color="#FE8984"></stop>
            <stop offset="1" stop-color="#FF8E88"></stop>
        </linearGradient>
        <linearGradient id="paint4_linear_52_1292" x1="44.8552" y1="48.07" x2="74.2704" y2="7.46397" gradientUnits="userSpaceOnUse">
            <stop offset="0.43" stop-color="#FF0044"></stop>
            <stop offset="0.45" stop-color="#FE0546"></stop>
            <stop offset="0.61" stop-color="#FE3E64"></stop>
            <stop offset="0.74" stop-color="#FD6879"></stop>
            <stop offset="0.85" stop-color="#FD8287"></stop>
            <stop offset="0.91" stop-color="#FD8C8C"></stop>
        </linearGradient>
        <linearGradient id="paint5_linear_52_1292" x1="64.9386" y1="9.54752" x2="44.2479" y2="45.3844" gradientUnits="userSpaceOnUse">
            <stop offset="0.18" stop-color="#FB4D4D"></stop>
            <stop offset="0.25" stop-color="#FB5E5E"></stop>
            <stop offset="0.41" stop-color="#FD817E"></stop>
            <stop offset="0.55" stop-color="#FE9996"></stop>
            <stop offset="0.68" stop-color="#FEA8A5"></stop>
            <stop offset="0.79" stop-color="#FFAEAA"></stop>
        </linearGradient>
        <linearGradient id="paint6_linear_52_1292" x1="57.4308" y1="24.3517" x2="51.147" y2="69.1606" gradientUnits="userSpaceOnUse">
            <stop offset="0" stop-color="#FA0000"></stop>
            <stop offset="0.05" stop-color="#FA100E"></stop>
            <stop offset="0.28" stop-color="#FF5D55"></stop>
            <stop offset="0.67" stop-color="#FF746D"></stop>
            <stop offset="0.92" stop-color="#FF7D77"></stop>
        </linearGradient>
        <linearGradient id="paint7_linear_52_1292" x1="69.5157" y1="13.5375" x2="64.2766" y2="113.684" gradientUnits="userSpaceOnUse">
            <stop offset="0.03" stop-color="#FB5151"></stop>
            <stop offset="0.09" stop-color="#FC6765"></stop>
            <stop offset="0.16" stop-color="#FD7874"></stop>
            <stop offset="0.24" stop-color="#FE857F"></stop>
            <stop offset="0.35" stop-color="#FE8C86"></stop>
            <stop offset="0.64" stop-color="#FF8E88"></stop>
            <stop offset="0.69" stop-color="#FF7B7F"></stop>
            <stop offset="0.8" stop-color="#FF4B68"></stop>
            <stop offset="0.95" stop-color="#FF0044"></stop>
        </linearGradient>
        <linearGradient id="paint8_linear_52_1292" x1="49.0363" y1="85.2625" x2="94.4457" y2="85.2625" gradientUnits="userSpaceOnUse">
            <stop offset="0.21" stop-color="#FF0044"></stop>
            <stop offset="0.29" stop-color="#FB0659"></stop>
            <stop offset="0.45" stop-color="#F11690"></stop>
            <stop offset="0.68" stop-color="#E22FE8"></stop>
            <stop offset="0.74" stop-color="#DF36FF"></stop>
        </linearGradient>
        <linearGradient id="paint9_linear_52_1292" x1="71.7488" y1="66.1833" x2="71.7488" y2="114" gradientUnits="userSpaceOnUse">
            <stop offset="0.45" stop-color="#8C00CD"></stop>
            <stop offset="0.73" stop-color="#CB29F3"></stop>
            <stop offset="0.81" stop-color="#DF36FF"></stop>
        </linearGradient>
        <linearGradient id="paint10_linear_52_1292" x1="55.7362" y1="77.71" x2="92.9032" y2="56.245" gradientUnits="userSpaceOnUse">
            <stop offset="0.1" stop-color="#FF8E88"></stop>
            <stop offset="0.52" stop-color="#FF9994"></stop>
            <stop offset="0.63" stop-color="#FF9E99"></stop>
            <stop offset="0.71" stop-color="#FE9A96"></stop>
            <stop offset="0.77" stop-color="#FE918C"></stop>
            <stop offset="0.82" stop-color="#FE817D"></stop>
            <stop offset="0.87" stop-color="#FD6A66"></stop>
            <stop offset="0.91" stop-color="#FC4C4A"></stop>
            <stop offset="0.96" stop-color="#FB2827"></stop>
            <stop offset="1" stop-color="#FA0000"></stop>
        </linearGradient>
    </defs>
</svg>